<svg version="1.1" id="Layer_1" xmlns="http://www.w3.org/2000/svg" xmlns:xlink="http://www.w3.org/1999/xlink" x="0px" y="0px"
	 width="100%" viewBox="0 0 480 475" enable-background="new 0 0 480 475" xml:space="preserve">


<path fill="#676767" opacity="1.000000" stroke="none" 
	d="
M316.023254,441.009613 
	C299.040131,450.630920 282.312714,459.960419 265.763489,469.595947 
	C262.034271,471.767273 259.310883,471.937378 255.396439,469.712830 
	C189.664322,432.358093 123.835747,395.172852 57.969151,358.055511 
	C54.712837,356.220459 53.218964,354.354309 53.232590,350.368774 
	C53.396103,302.536469 53.342659,254.703445 53.345871,206.870590 
	C53.345970,205.399231 53.345882,203.927872 53.345882,202.046448 
	C81.974846,202.046448 110.191246,202.046448 139.107742,202.046448 
	C139.107742,203.830917 139.107498,205.597229 139.107773,207.363541 
	C139.112869,238.529831 139.151413,269.696228 139.070862,300.862305 
	C139.062927,303.936859 139.667084,305.870392 142.674667,307.556030 
	C180.444427,328.724670 218.139420,350.027588 255.759918,371.460449 
	C259.262024,373.455658 261.877472,373.378357 265.307007,371.425751 
	C303.081604,349.918915 340.911346,328.508301 378.825592,307.248962 
	C381.579590,305.704742 381.922729,303.950623 381.918610,301.321442 
	C381.869843,270.155182 381.887909,238.988800 381.888397,207.822449 
	C381.888428,206.017838 381.888397,204.213226 381.888397,202.021561 
	C410.488770,202.021561 438.712524,202.021561 467.684692,202.021561 
	C467.684692,203.812805 467.684845,205.574219 467.684723,207.335632 
	C467.681824,254.835114 467.634491,302.334717 467.756775,349.833862 
	C467.766998,353.803101 466.684296,356.072052 463.044678,358.057709 
	C446.965088,366.830444 431.086395,375.971558 415.141724,384.991241 
	C414.005432,385.633972 412.923615,386.372986 411.290253,387.397217 
	C419.463318,401.621033 427.540802,415.678528 435.948059,430.309906 
	C410.852905,444.783356 386.119904,459.047943 360.794220,473.654327 
	C352.308838,459.068756 343.995422,444.778748 335.481171,430.143555 
	C328.788818,433.880005 322.566101,437.354248 316.023254,441.009613 
z"/>
<path fill="#FD6703" opacity="1.000000" stroke="none" 
	d="
M257.988281,3.325488 
	C258.869690,3.042003 259.579834,3.063794 260.644226,3.057511 
	C276.866699,11.809173 292.787079,20.496298 308.593658,29.385666 
	C360.120361,58.363407 411.618134,87.392731 463.057037,116.525772 
	C464.960571,117.603859 467.405334,119.942039 467.447144,121.742935 
	C467.798584,136.876251 467.647278,152.021255 467.647278,167.575668 
	C466.390869,167.732224 465.137695,168.012268 463.881409,168.026672 
	C436.725983,168.338333 409.570465,168.665604 382.414032,168.833908 
	C379.862976,168.849731 376.959229,168.432175 374.802765,167.197006 
	C340.266266,147.415802 305.824707,127.468796 271.034546,107.096436 
	C270.389496,106.560959 270.071442,106.488571 269.753418,106.416183 
	C269.753418,106.416183 269.712219,106.353615 269.610229,106.013336 
	C267.652191,104.860054 265.796173,104.047043 263.940155,103.234039 
	C263.763275,103.165573 263.586395,103.097107 263.137146,102.534012 
	C260.689240,99.327797 258.316315,100.218903 255.866196,101.608025 
	C250.023148,104.920807 244.105667,108.107193 238.341599,111.551064 
	C236.813522,112.464043 235.732361,114.125015 234.445984,115.442535 
	C234.445984,115.442535 234.366684,115.414246 234.060425,115.349258 
	C233.168488,115.526405 232.582794,115.768547 231.643951,116.054726 
	C228.493820,118.072556 225.696838,120.046341 222.899857,122.020126 
	C222.899857,122.020134 222.725220,122.198509 222.205841,122.150772 
	C217.869095,124.485107 214.051758,126.867188 210.234406,129.249268 
	C210.234406,129.249268 210.136749,128.994781 209.801147,129.057068 
	C207.364365,130.523300 205.263168,131.927246 203.161972,133.331192 
	C203.161972,133.331192 202.956238,133.542709 202.432617,133.477051 
	C196.373505,136.355423 190.766235,139.174606 185.333450,142.297379 
	C182.703003,143.809341 180.399948,145.890930 177.948654,147.714630 
	C177.655884,147.919418 177.363113,148.124222 176.441437,148.269348 
	C174.194778,149.396713 172.577042,150.583725 170.959290,151.770752 
	C170.959290,151.770752 170.616028,152.029846 170.136353,152.080338 
	C169.419662,152.386230 169.182632,152.641632 168.945602,152.897018 
	C168.945602,152.897018 168.945007,152.982620 168.717010,152.961365 
	C168.215714,153.029800 168.045593,153.214493 167.978668,153.494171 
	C167.636490,153.696625 167.294312,153.899078 166.300598,154.115814 
	C164.445999,155.068375 163.242920,156.006653 162.039841,156.944931 
	C162.039841,156.944931 161.777039,157.257828 161.219284,157.219589 
	C159.826340,157.837936 158.991150,158.494537 158.155960,159.151123 
	C158.155960,159.151123 158.048462,158.997925 157.725845,159.042770 
	C155.344986,160.143692 153.341599,161.329498 151.216736,162.228027 
	C147.176132,163.936676 143.070572,166.857071 138.984100,166.870499 
	C112.235100,166.958344 85.484467,166.347656 58.733051,166.119690 
	C54.957893,166.087509 53.844589,164.616928 53.891125,161.051056 
	C54.034374,150.073624 54.088577,139.090149 53.868187,128.115250 
	C53.779690,123.708031 54.035011,119.713425 57.841896,116.810966 
	C57.841896,116.810966 57.989609,117.003517 58.282848,116.947647 
	C62.723663,114.362396 66.871239,111.833000 71.018814,109.303604 
	C71.741936,108.858139 72.465065,108.412682 73.850937,107.935776 
	C75.573174,107.158264 76.632660,106.412201 77.692146,105.666138 
	C77.692146,105.666138 77.894699,105.870636 78.126022,105.840332 
	C78.908478,105.279503 79.459610,104.748962 80.010742,104.218422 
	C80.320160,104.027779 80.629578,103.837135 81.505974,103.634232 
	C82.272377,103.311821 82.471802,103.001656 82.671227,102.691483 
	C82.671227,102.691483 82.740356,102.705269 83.077026,102.775558 
	C84.246925,102.201469 85.080147,101.557091 85.913376,100.912720 
	C86.362389,100.596748 86.811401,100.280777 87.911484,99.970535 
	C91.964638,97.891312 95.366737,95.806351 98.768829,93.721390 
	C98.768829,93.721390 99.001526,93.988037 99.247849,93.947563 
	C100.306114,93.242180 101.118050,92.577271 101.929993,91.912354 
	C101.929993,91.912361 102.167206,91.668678 102.631660,91.677078 
	C103.334991,91.394508 103.573868,91.103531 103.812737,90.812546 
	C103.812737,90.812546 103.917557,90.913597 104.198746,90.898712 
	C104.919899,90.508842 105.359856,90.133858 105.799812,89.758873 
	C105.799812,89.758873 105.959747,89.991013 106.209457,89.920525 
	C106.869476,89.457657 107.279778,89.065269 107.690079,88.672897 
	C107.690086,88.672897 107.851517,88.842964 108.141479,88.824448 
	C109.623390,87.920601 110.815346,87.035271 112.007301,86.149948 
	C112.309761,85.951920 112.612221,85.753883 113.471069,85.568787 
	C114.232460,85.279892 114.437469,84.978058 114.642479,84.676224 
	C114.642479,84.676224 114.710686,84.672157 115.080643,84.763092 
	C116.929581,83.847847 118.408562,82.841660 119.887543,81.835464 
	C119.887535,81.835464 119.943230,81.988571 120.238449,81.964462 
	C121.704056,81.079491 122.874435,80.218636 124.044815,79.357773 
	C124.770386,78.904350 125.495949,78.450935 126.890877,77.958832 
	C129.669006,76.555695 131.777756,75.191246 133.886520,73.826797 
	C133.886520,73.826797 134.145050,73.588577 134.608658,73.610214 
	C135.313644,73.347603 135.555023,73.063354 135.796387,72.779099 
	C135.796387,72.779099 135.926208,72.944519 136.194275,72.908890 
	C136.892456,72.487251 137.322586,72.101250 137.752716,71.715248 
	C137.752716,71.715248 137.963379,71.990021 138.177246,71.916702 
	C138.932755,71.325195 139.474396,70.807007 140.016037,70.288818 
	C140.336197,70.093895 140.656342,69.898979 141.586151,69.738144 
	C142.798141,69.226303 143.400482,68.680367 144.002808,68.134430 
	C144.002808,68.134430 144.302185,67.873627 144.776947,67.850281 
	C145.486832,67.559143 145.721924,67.291344 145.957031,67.023544 
	C172.975739,51.696247 199.992004,36.364632 227.014404,21.043854 
	C237.274673,15.226642 247.549088,9.434391 257.988281,3.325488 
z"/>
<path fill="#D6804B" opacity="1.000000" stroke="none" 
	d="
M57.475555,116.836090 
	C54.035011,119.713425 53.779690,123.708031 53.868187,128.115250 
	C54.088577,139.090149 54.034374,150.073624 53.891125,161.051056 
	C53.844589,164.616928 54.957893,166.087509 58.733051,166.119690 
	C85.484467,166.347656 112.235100,166.958344 138.984100,166.870499 
	C143.070572,166.857071 147.176132,163.936676 151.216736,162.228027 
	C153.341599,161.329498 155.344986,160.143692 157.769592,159.125122 
	C150.619186,164.601608 143.317688,169.259796 132.996704,168.879379 
	C107.895218,167.954224 82.747276,168.183014 57.618366,168.212143 
	C53.373619,168.217056 52.254433,166.935959 52.336048,162.835052 
	C52.594311,149.857910 52.604347,136.871170 52.411446,123.892593 
	C52.355633,120.137367 53.443420,117.808075 57.475555,116.836090 
z"/>
<path fill="#C78357" opacity="1.000000" stroke="none" 
	d="
M234.803192,115.452072 
	C235.732361,114.125015 236.813522,112.464043 238.341599,111.551064 
	C244.105667,108.107193 250.023148,104.920807 255.866196,101.608025 
	C258.316315,100.218903 260.689240,99.327797 262.912506,102.359375 
	C260.812500,103.019104 258.403076,102.847374 256.563293,103.788834 
	C249.331604,107.489464 242.279282,111.540596 234.803192,115.452072 
z"/>
<path fill="#D6804B" opacity="1.000000" stroke="none" 
	d="
M178.295624,147.719849 
	C180.399948,145.890930 182.703003,143.809341 185.333450,142.297379 
	C190.766235,139.174606 196.373505,136.355423 202.286880,133.499969 
	C194.657349,138.300720 186.649963,143.012894 178.295624,147.719849 
z"/>
<path fill="#D6804B" opacity="1.000000" stroke="none" 
	d="
M70.671814,109.291977 
	C66.871239,111.833000 62.723663,114.362396 58.205681,116.853165 
	C61.998455,114.303146 66.161636,111.791756 70.671814,109.291977 
z"/>
<path fill="#D6804B" opacity="1.000000" stroke="none" 
	d="
M210.594238,129.221619 
	C214.051758,126.867188 217.869095,124.485107 222.081024,122.152557 
	C218.635086,124.532700 214.794586,126.863327 210.594238,129.221619 
z"/>
<path fill="#D6804B" opacity="1.000000" stroke="none" 
	d="
M98.408524,93.750320 
	C95.366737,95.806351 91.964638,97.891312 88.183838,99.911865 
	C91.219505,97.824722 94.633865,95.801987 98.408524,93.750320 
z"/>
<path fill="#D6804B" opacity="1.000000" stroke="none" 
	d="
M223.268387,122.014603 
	C225.696838,120.046341 228.493820,118.072556 231.653625,116.329376 
	C232.026947,116.742973 232.037445,116.925957 232.047928,117.108932 
	C229.244263,118.742310 226.440582,120.375694 223.268387,122.014603 
z"/>
<path fill="#D6804B" opacity="1.000000" stroke="none" 
	d="
M133.526733,73.838272 
	C131.777756,75.191246 129.669006,76.555695 127.201218,77.871902 
	C128.950455,76.499016 131.058701,75.174377 133.526733,73.838272 
z"/>
<path fill="#D6804B" opacity="1.000000" stroke="none" 
	d="
M203.515381,133.296936 
	C205.263168,131.927246 207.364365,130.523300 209.840546,129.186111 
	C208.099945,130.589478 205.984360,131.926071 203.515381,133.296936 
z"/>
<path fill="#D6804B" opacity="1.000000" stroke="none" 
	d="
M171.297272,151.785889 
	C172.577042,150.583725 174.194778,149.396713 176.175385,148.323975 
	C174.903915,149.559174 173.269577,150.680099 171.297272,151.785889 
z"/>
<path fill="#D6804B" opacity="1.000000" stroke="none" 
	d="
M119.541542,81.840294 
	C118.408562,82.841660 116.929581,83.847847 115.094559,84.731903 
	C116.224197,83.688217 117.709869,82.766670 119.541542,81.840294 
z"/>
<path fill="#C78357" opacity="1.000000" stroke="none" 
	d="
M264.054504,103.533447 
	C265.796173,104.047043 267.652191,104.860054 269.573456,106.006241 
	C267.815430,105.503899 265.992126,104.668381 264.054504,103.533447 
z"/>
<path fill="#D6804B" opacity="1.000000" stroke="none" 
	d="
M111.680740,86.139664 
	C110.815346,87.035271 109.623390,87.920601 108.083923,88.722305 
	C108.942329,87.802254 110.148254,86.965820 111.680740,86.139664 
z"/>
<path fill="#D6804B" opacity="1.000000" stroke="none" 
	d="
M162.372467,156.930573 
	C163.242920,156.006653 164.445999,155.068375 166.012299,154.198242 
	C165.152039,155.149643 163.928574,156.032928 162.372467,156.930573 
z"/>
<path fill="#D6804B" opacity="1.000000" stroke="none" 
	d="
M123.721222,79.327042 
	C122.874435,80.218636 121.704056,81.079491 120.192535,81.897171 
	C121.033470,81.001434 122.215546,80.148872 123.721222,79.327042 
z"/>
<path fill="#D6804B" opacity="1.000000" stroke="none" 
	d="
M158.478653,159.154449 
	C158.991150,158.494537 159.826340,157.837936 161.032288,157.301895 
	C160.535812,158.000870 159.668579,158.579315 158.478653,159.154449 
z"/>
<path fill="#D6804B" opacity="1.000000" stroke="none" 
	d="
M101.605896,91.913170 
	C101.118050,92.577271 100.306114,93.242180 99.131836,93.812454 
	C99.606926,93.116539 100.444366,92.515259 101.605896,91.913170 
z"/>
<path fill="#D6804B" opacity="1.000000" stroke="none" 
	d="
M77.364319,105.685410 
	C76.632660,106.412201 75.573174,107.158264 74.163681,107.860214 
	C74.887955,107.112297 75.962227,106.408485 77.364319,105.685410 
z"/>
<path fill="#D6804B" opacity="1.000000" stroke="none" 
	d="
M85.593323,100.902054 
	C85.080147,101.557091 84.246925,102.201469 83.081146,102.740555 
	C83.590157,102.053970 84.431709,101.472679 85.593323,100.902054 
z"/>
<path fill="#D6804B" opacity="1.000000" stroke="none" 
	d="
M143.696686,68.113937 
	C143.400482,68.680367 142.798141,69.226303 141.860992,69.669846 
	C142.147644,69.076126 142.769089,68.584785 143.696686,68.113937 
z"/>
<path fill="#D6804B" opacity="1.000000" stroke="none" 
	d="
M139.730072,70.270004 
	C139.474396,70.807007 138.932755,71.325195 138.080322,71.773453 
	C138.327713,71.219414 138.885895,70.735306 139.730072,70.270004 
z"/>
<path fill="#D6804B" opacity="1.000000" stroke="none" 
	d="
M79.716690,104.188690 
	C79.459610,104.748962 78.908478,105.279503 78.043419,105.722488 
	C78.293877,105.142944 78.858261,104.650948 79.716690,104.188690 
z"/>
<path fill="#C78357" opacity="1.000000" stroke="none" 
	d="
M232.350174,117.065765 
	C232.037445,116.925957 232.026947,116.742973 232.006775,116.285339 
	C232.582794,115.768547 233.168488,115.526405 234.056641,115.391190 
	C233.790207,116.006264 233.221313,116.514427 232.350174,117.065765 
z"/>
<path fill="#D6804B" opacity="1.000000" stroke="none" 
	d="
M107.399147,88.683929 
	C107.279778,89.065269 106.869476,89.457657 106.138931,89.798691 
	C106.248535,89.396553 106.678375,89.045761 107.399147,88.683929 
z"/>
<path fill="#D6804B" opacity="1.000000" stroke="none" 
	d="
M137.458389,71.716736 
	C137.322586,72.101250 136.892456,72.487251 136.146729,72.815109 
	C136.275436,72.410728 136.719742,72.064476 137.458389,71.716736 
z"/>
<path fill="#D6804B" opacity="1.000000" stroke="none" 
	d="
M105.503220,89.765152 
	C105.359856,90.133858 104.919899,90.508842 104.167892,90.832779 
	C104.306107,90.444962 104.756371,90.108200 105.503220,89.765152 
z"/>
<path fill="#D6804B" opacity="1.000000" stroke="none" 
	d="
M169.221161,152.910339 
	C169.182632,152.641632 169.419662,152.386230 169.927612,152.131973 
	C169.964600,152.396637 169.730667,152.660156 169.221161,152.910339 
z"/>
<path fill="#D6804B" opacity="1.000000" stroke="none" 
	d="
M168.187927,153.530182 
	C168.045593,153.214493 168.215714,153.029800 168.684814,152.933151 
	C168.870712,153.253922 168.709579,153.467239 168.187927,153.530182 
z"/>
<path fill="#D6804B" opacity="1.000000" stroke="none" 
	d="
M114.393463,84.702049 
	C114.437469,84.978058 114.232460,85.279892 113.734344,85.497849 
	C113.675652,85.185280 113.910049,84.956581 114.393463,84.702049 
z"/>
<path fill="#D6804B" opacity="1.000000" stroke="none" 
	d="
M135.530945,72.795273 
	C135.555023,73.063354 135.313644,73.347603 134.778183,73.563744 
	C134.744568,73.267570 135.005020,73.039505 135.530945,72.795273 
z"/>
<path fill="#D6804B" opacity="1.000000" stroke="none" 
	d="
M103.542099,90.835419 
	C103.573868,91.103531 103.334991,91.394508 102.796211,91.634247 
	C102.754692,91.341431 103.013077,91.099854 103.542099,90.835419 
z"/>
<path fill="#D6804B" opacity="1.000000" stroke="none" 
	d="
M82.414169,102.730034 
	C82.471802,103.001656 82.272377,103.311821 81.773697,103.573944 
	C81.702011,103.273460 81.929565,103.021027 82.414169,102.730034 
z"/>
<path fill="#C78357" opacity="1.000000" stroke="none" 
	d="
M269.846069,106.639038 
	C270.071442,106.488571 270.389496,106.560959 270.761475,106.891098 
	C270.465118,107.230537 270.172913,107.134880 269.846069,106.639038 
z"/>
<path fill="#D6804B" opacity="1.000000" stroke="none" 
	d="
M145.688965,67.037094 
	C145.721924,67.291344 145.486832,67.559143 144.970551,67.806274 
	C144.933212,67.540619 145.177063,67.295639 145.688965,67.037094 
z"/>
</svg>